<?xml version="1.0" encoding="utf-8"?>
<svg version="1.0" xmlns="http://www.w3.org/2000/svg" width="640.000000pt" height="640.000000pt" viewBox="0 0 640.000000 640.000000" preserveAspectRatio="xMidYMid meet" xmlns:bx="https://boxy-svg.com">
  <g transform="translate(0.000000,640.000000) scale(0.100000,-0.100000)" fill="#000000" stroke="none">
    <path d="M3095 5150 c-44 -22 -156 -77 -250 -122 -198 -95 -448 -216 -730 -352 -110 -54 -271 -131 -357 -173 -87 -42 -158 -79 -158 -82 0 -3 52 -30 115 -60 l115 -54 0 -451 -1 -451 -32 -52 c-18 -29 -54 -87 -81 -129 -48 -75 -48 -75 -29 -97 11 -12 61 -71 113 -130 51 -59 96 -106 100 -105 9 4 233 246 242 263 5 7 -25 56 -76 125 -46 62 -87 127 -90 143 -8 41 -6 778 2 798 8 19 -54 47 697 -311 281 -134 515 -243 520 -243 6 0 105 47 220 103 116 56 246 119 290 140 44 21 166 79 270 130 242 118 527 256 678 327 64 31 117 59 117 63 0 4 -44 27 -97 53 -90 42 -254 121 -523 249 -58 28 -166 80 -240 115 -74 36 -175 84 -225 108 -49 24 -175 84 -279 134 -104 50 -199 93 -210 96 -12 2 -57 -14 -101 -35z" style="fill: #E62727;"/>
    <path d="M4499 4072 c-77 -31 -138 -81 -179 -144 -128 -197 -37 -444 193 -521 16 -6 17 -29 17 -304 0 -428 -25 -547 -143 -693 -143 -176 -299 -247 -522 -237 -174 7 -305 64 -421 183 -109 112 -157 237 -171 440 l-6 91 74 6 c371 32 686 295 738 617 6 36 11 89 11 118 0 39 6 61 20 79 14 18 20 41 20 74 0 40 -5 55 -31 84 -44 49 -95 63 -154 41 -24 -10 -54 -29 -65 -43 -41 -53 -35 -136 15 -183 28 -27 31 -54 14 -146 -21 -112 -115 -257 -213 -323 -155 -106 -293 -145 -506 -144 -165 1 -264 22 -395 87 -188 93 -281 216 -304 402 -9 73 -8 78 16 115 70 105 18 227 -100 237 -65 5 -109 -14 -137 -61 -34 -55 -22 -148 24 -186 11 -9 16 -30 16 -61 0 -141 65 -315 155 -418 88 -99 225 -189 361 -236 73 -26 207 -56 247 -56 23 0 24 -3 35 -137 18 -216 59 -333 161 -459 147 -183 394 -303 622 -304 85 0 208 23 287 54 191 75 378 256 455 441 58 140 60 152 64 547 l5 367 36 12 c83 27 167 103 206 188 17 37 21 65 21 146 0 90 -3 105 -28 153 -36 69 -98 129 -167 161 -73 34 -202 40 -271 13z m209 -166 c17 -9 42 -31 56 -48 100 -134 -6 -317 -172 -294 -149 20 -210 186 -110 299 55 62 154 80 226 43z" style="fill: black;"/>
  </g>
  
 
</svg>