<!DOCTYPE svg PUBLIC "-//W3C//DTD SVG 1.1//EN" "http://www.w3.org/Graphics/SVG/1.1/DTD/svg11.dtd">
<!-- Uploaded to: SVG Repo, www.svgrepo.com, Transformed by: SVG Repo Mixer Tools -->
<svg width="184px" height="184px" viewBox="0 0 24.00 24.00" fill="none" xmlns="http://www.w3.org/2000/svg" stroke="#ff0000">
<g id="SVGRepo_bgCarrier" stroke-width="0"/>
<g id="SVGRepo_tracerCarrier" stroke-linecap="round" stroke-linejoin="round"/>
<g id="SVGRepo_iconCarrier"> <g clip-path="url(#a)" stroke="#ff0000" stroke-width="1.6320000000000001" stroke-miterlimit="10"> <path d="m3.798 8.889-1.98 1.98a1.6 1.6 0 0 0 0 2.262l1.98 1.98a1.6 1.6 0 0 0 2.262 0l1.98-1.98a1.6 1.6 0 0 0 0-2.262l-1.98-1.98a1.6 1.6 0 0 0-2.262 0Z" fill="#ff0000" fill-opacity=".16"/> <path d="m10.869 1.818-1.98 1.98a1.6 1.6 0 0 0 0 2.262l1.98 1.98a1.6 1.6 0 0 0 2.262 0l1.98-1.98a1.6 1.6 0 0 0 0-2.262l-1.98-1.98a1.6 1.6 0 0 0-2.262 0ZM10.869 15.96l-1.98 1.98a1.6 1.6 0 0 0 0 2.262l1.98 1.98a1.6 1.6 0 0 0 2.262 0l1.98-1.98a1.6 1.6 0 0 0 0-2.262l-1.98-1.98a1.6 1.6 0 0 0-2.262 0Z" fill="#ffffff"/> <path d="m17.94 8.889-1.98 1.98a1.6 1.6 0 0 0 0 2.262l1.98 1.98a1.6 1.6 0 0 0 2.262 0l1.98-1.98a1.6 1.6 0 0 0 0-2.262l-1.98-1.98a1.6 1.6 0 0 0-2.262 0Z" fill="#ff0000" fill-opacity=".16"/> </g> <defs> <clipPath id="a"> <path fill="#ffffff" d="M0 0h24v24H0z"/> </clipPath> </defs> </g>
</svg>